<?xml version="1.0" encoding="utf-8"?>
<svg width="19px" height="15px" viewBox="0 0 19 15" version="1.1" xmlns:xlink="http://www.w3.org/1999/xlink" xmlns="http://www.w3.org/2000/svg">
  <desc>Created with Lunacy</desc>
  <g id="crown">
    <path d="M15.6028 3.2754C14.6188 3.9812 13.2376 4.9198 12.6146 4.9198C12.4912 4.9198 12.4516 4.8826 12.4228 4.8476C12.1684 4.534 12.2372 3.4344 12.6278 1.5806C12.6664 1.397 12.5696 1.2124 12.3974 1.1398C12.2252 1.0668 12.0252 1.1266 11.9208 1.2818C10.5766 3.286 9.96098 3.7064 9.68198 3.7064C9.28618 3.7064 8.88398 2.568 8.48478 0.3224C8.45298 0.1432 8.30178 0.0126 8.12218 0.0022L8.12218 0C8.11838 0 8.11478 0.0008 8.11098 0.0008C8.10718 0.0008 8.10298 0 8.09938 0L8.09938 0.0022C7.92038 0.0126 7.76958 0.1432 7.73718 0.3224C7.33758 2.568 6.93498 3.7064 6.53958 3.7064C6.26038 3.7064 5.64518 3.2858 4.30118 1.2818C4.19698 1.1266 3.99698 1.0668 3.82438 1.1398C3.65198 1.2124 3.55518 1.397 3.59398 1.5806C3.98438 3.4344 4.05378 4.534 3.79878 4.8476C3.77058 4.8828 3.73038 4.9198 3.60718 4.9198C2.98418 4.9198 1.60298 3.9814 0.618579 3.2754C0.462979 3.1636 0.249579 3.1818 0.114579 3.3172C-0.0206213 3.452 -0.0384213 3.6654 0.0731787 3.8212C2.32378 6.6996 1.90018 10.0032 1.90018 10.0032C1.89198 10.049 1.88758 10.0958 1.88758 10.145C1.88758 10.9566 3.02398 11.2778 4.01378 11.467C5.10438 11.676 6.54078 11.7924 8.06698 11.7964L8.06698 11.7968C8.08158 11.7968 8.09638 11.7968 8.11098 11.7964C8.12558 11.7968 8.14018 11.7968 8.15518 11.7968L8.15518 11.7964C9.68098 11.7922 11.1176 11.6758 12.2078 11.467C13.1978 11.2778 14.3344 10.956 14.3344 10.145C14.3344 10.0958 14.33 10.0492 14.3218 10.0032C14.3218 10.0032 13.8984 6.699 16.1486 3.8212C16.2604 3.6656 16.2428 3.452 16.1076 3.3172C15.9718 3.1822 15.7588 3.1638 15.6028 3.2754ZM8.15478 10.6766L8.15178 10.6766C8.13778 10.6766 8.12438 10.6772 8.11058 10.6772C8.09658 10.6772 8.08358 10.6766 8.06958 10.6766L8.06658 10.6766C5.64118 10.6696 4.03778 10.3874 3.33018 10.1452C4.03778 9.9026 5.64118 9.6204 8.06658 9.6136L8.07238 9.6136C8.08498 9.6136 8.09758 9.6136 8.11038 9.6136C8.12318 9.6136 8.13518 9.6136 8.14838 9.6136L8.15438 9.6136C10.5796 9.6204 12.1828 9.9026 12.8906 10.1452C12.1832 10.3874 10.58 10.6696 8.15478 10.6766Z" transform="translate(1.349621 2.971)" id="Shape" fill="#FFD340" stroke="none" />
    <path d="M1.1828 2.3656C1.83604 2.3656 2.3656 1.83604 2.3656 1.1828C2.3656 0.529558 1.83604 0 1.1828 0C0.529558 0 0 0.529558 0 1.1828C0 1.83604 0.529558 2.3656 1.1828 2.3656Z" transform="translate(8.2776 0.1318)" id="Oval" fill="#FFD340" stroke="none" />
    <path d="M0.9856 1.9712C1.52993 1.9712 1.9712 1.52993 1.9712 0.9856C1.9712 0.441268 1.52993 0 0.9856 0C0.441268 0 0 0.441268 0 0.9856C0 1.52993 0.441268 1.9712 0.9856 1.9712Z" transform="translate(3.4822 1.758)" id="Oval" fill="#FFD340" stroke="none" />
    <path d="M0.9856 1.9712C1.52993 1.9712 1.9712 1.52993 1.9712 0.9856C1.9712 0.441268 1.52993 0 0.9856 0C0.441268 0 0 0.441268 0 0.9856C0 1.52993 0.441268 1.9712 0.9856 1.9712Z" transform="translate(13.3854 1.758)" id="Oval" fill="#FFD340" stroke="none" />
    <path d="M0.6644 1.3288C1.03134 1.3288 1.3288 1.03134 1.3288 0.6644C1.3288 0.297462 1.03134 0 0.6644 0C0.297462 0 0 0.297462 0 0.6644C0 1.03134 0.297462 1.3288 0.6644 1.3288Z" transform="translate(0 4.8874)" id="Oval" fill="#FFD340" stroke="none" />
    <path d="M0.6644 1.3288C1.03134 1.3288 1.3288 1.03134 1.3288 0.6644C1.3288 0.297462 1.03134 0 0.6644 0C0.297462 0 0 0.297462 0 0.6644C0 1.03134 0.297462 1.3288 0.6644 1.3288Z" transform="translate(17.5712 4.8874)" id="Oval" fill="#FFD340" stroke="none" />
  </g>
</svg>