<?xml version="1.0" encoding="UTF-8"?>
<svg width="5px" height="10px" viewBox="0 0 5 10" version="1.1" xmlns="http://www.w3.org/2000/svg" xmlns:xlink="http://www.w3.org/1999/xlink">
    <!-- Generator: Sketch 60 (88103) - https://sketch.com -->
    <title>Path</title>
    <desc>Created with Sketch.</desc>
    <g id="Page-1" stroke="none" stroke-width="1" fill="none" fill-rule="evenodd">
        <g id="Campaigns" transform="translate(-1153.000000, -625.000000)" fill="#EEEEEE" fill-rule="nonzero">
            <g id="Live-Assets----Videos" transform="translate(841.000000, 556.000000)">
                <g id="Social-Icons" transform="translate(312.000000, 69.000000)">
                    <path d="M4.81171468,0.00208066748 L3.61244203,0 C2.26510035,0 1.39438896,0.965949877 1.39438896,2.46101349 L1.39438896,3.5957055 L0.188573958,3.5957055 C0.0843772249,3.5957055 0,3.6870468 0,3.79971495 L0,5.44375436 C0,5.5564225 0.0844734361,5.64765977 0.188573958,5.64765977 L1.39438896,5.64765977 L1.39438896,9.79609459 C1.39438896,9.90876273 1.47876619,10 1.58296292,10 L3.15620851,10 C3.26040524,10 3.34478247,9.9086587 3.34478247,9.79609459 L3.34478247,5.64765977 L4.75466143,5.64765977 C4.85885817,5.64765977 4.94323539,5.5564225 4.94323539,5.44375436 L4.94381266,3.79971495 C4.94381266,3.74561759 4.92389694,3.69380897 4.88858743,3.65552469 C4.85327792,3.61724041 4.80517231,3.5957055 4.75514249,3.5957055 L3.34478247,3.5957055 L3.34478247,2.63381293 C3.34478247,2.17148861 3.44667013,1.93678932 4.00363678,1.93678932 L4.81152225,1.93647722 C4.91562278,1.93647722 5,1.84513592 5,1.73257181 L5,0.20598608 C5,0.0935260031 4.91571899,0.00228873423 4.81171468,0.00208066748 Z" id="Path"></path>
                </g>
            </g>
        </g>
    </g>
</svg>