<?xml version="1.0" encoding="UTF-8"?>
<svg width="10px" height="10px" viewBox="0 0 10 10" version="1.1" xmlns="http://www.w3.org/2000/svg" xmlns:xlink="http://www.w3.org/1999/xlink">
    <!-- Generator: Sketch 60 (88103) - https://sketch.com -->
    <title>facebook-logo</title>
    <desc>Created with Sketch.</desc>
    <g id="Page-1" stroke="none" stroke-width="1" fill="none" fill-rule="evenodd">
        <g id="Campaigns" transform="translate(-1168.000000, -625.000000)" fill="#B1554A" fill-rule="nonzero">
            <g id="Live-Assets----Videos" transform="translate(841.000000, 556.000000)">
                <g id="Social-Icons" transform="translate(312.000000, 69.000000)">
                    <g id="facebook-logo" transform="translate(15.000000, 0.000000)">
                        <g id="instagram-logo">
                            <path d="M7.24030237,0 L2.75957933,0 C1.23794821,0 0,1.23800736 0,2.75963848 L0,7.24036152 C0,8.76205179 1.23794821,10 2.75957933,10 L7.24030237,10 C8.76205179,10 10,8.76199264 10,7.24036152 L10,2.75963848 C10,1.23800736 8.76205179,0 7.24030237,0 Z M9.11281068,7.24036152 C9.11281068,8.27282299 8.27282299,9.11275153 7.24036152,9.11275153 L2.75957933,9.11275153 C1.72717701,9.11275153 0.887248465,8.27282299 0.887248465,7.24036152 L0.887248465,2.75963848 C0.887248465,1.72723616 1.72717701,0.887248465 2.75957933,0.887248465 L7.24030237,0.887248465 C8.27276384,0.887248465 9.11281068,1.72723616 9.11281068,2.75963848 L9.11281068,7.24036152 L9.11281068,7.24036152 Z" id="Shape"></path>
                            <path d="M5,2.40740741 C3.57042291,2.40740741 2.40740741,3.57044961 2.40740741,5.00005952 C2.40740741,6.4296099 3.57042291,7.59259259 5,7.59259259 C6.42957709,7.59259259 7.59259259,6.4296099 7.59259259,5.00005952 C7.59259259,3.57044961 6.42957709,2.40740741 5,2.40740741 Z M5,6.69980802 C4.06271972,6.69980802 3.30011197,5.93730179 3.30011197,5 C3.30011197,4.06263869 4.06266021,3.30007295 5,3.30007295 C5.93733979,3.30007295 6.69988803,4.06263869 6.69988803,5 C6.69988803,5.93730179 5.93728028,6.69980802 5,6.69980802 Z" id="Shape"></path>
                            <path d="M7.77777778,1.66666667 C7.63181818,1.66666667 7.48843434,1.72575758 7.38535354,1.82929293 C7.28176768,1.93232323 7.22222222,2.07575758 7.22222222,2.22222222 C7.22222222,2.36823232 7.28181818,2.51161616 7.38535354,2.61515152 C7.48838384,2.71818182 7.63181818,2.77777778 7.77777778,2.77777778 C7.92424242,2.77777778 8.06717172,2.71818182 8.17070707,2.61515152 C8.27424242,2.51161616 8.33333333,2.36818182 8.33333333,2.22222222 C8.33333333,2.07575758 8.27424242,1.93232323 8.17070707,1.82929293 C8.06767677,1.72575758 7.92424242,1.66666667 7.77777778,1.66666667 Z" id="Path"></path>
                        </g>
                    </g>
                </g>
            </g>
        </g>
    </g>
</svg>