<?xml version="1.0" encoding="UTF-8"?>
<svg width="11px" height="10px" viewBox="0 0 11 10" version="1.1" xmlns="http://www.w3.org/2000/svg" xmlns:xlink="http://www.w3.org/1999/xlink">
    <!-- Generator: Sketch 60 (88103) - https://sketch.com -->
    <title>Path</title>
    <desc>Created with Sketch.</desc>
    <g id="Symbols" stroke="none" stroke-width="1" fill="none" fill-rule="evenodd">
        <g id="Distribute" transform="translate(-22.000000, -10.000000)" fill="#FFFFFF" fill-rule="nonzero">
            <g id="Select">
                <g id="Upload">
                    <g id="sent-mail" transform="translate(22.000000, 10.000000)">
                        <path d="M10.9439945,0.0400824713 C10.8950289,-0.00210318656 10.8253459,-0.0118905176 10.7662847,0.0150165674 L0.0951457375,4.88516665 C0.0376958769,4.9113954 0.000700402892,4.96769678 0,5.02990932 C-0.000680761472,5.09212186 0.0350979725,5.14919847 0.0919887904,5.17662238 L3.11190467,6.63238289 C3.16728279,6.65909617 3.2333156,6.6530558 3.28277443,6.616749 L6.21896545,4.46114587 L3.91393366,6.79007844 C3.8810488,6.8233166 3.86427752,6.86882931 3.86789485,6.91502034 L4.09739833,9.85086433 C4.10249548,9.9159194 4.14689005,9.97154245 4.20999611,9.99192464 C4.22686605,9.99735128 4.24419637,10 4.26132939,10 C4.30832186,10 4.35403182,9.98019923 4.38583149,9.94402163 L5.98870562,8.11957269 L7.97018321,9.04953064 C8.01319661,9.06971903 8.0629843,9.07055887 8.10668828,9.05188865 C8.15039227,9.03318612 8.18367176,8.99681472 8.19794379,8.95217415 L10.9924339,0.20989105 C11.0119675,0.148841361 10.9929272,0.0822681291 10.9439945,0.0400824713 Z" id="Path"></path>
                    </g>
                </g>
            </g>
        </g>
    </g>
</svg>