<?xml version="1.0" encoding="UTF-8"?>
<svg width="13px" height="10px" viewBox="0 0 13 10" version="1.1" xmlns="http://www.w3.org/2000/svg" xmlns:xlink="http://www.w3.org/1999/xlink">
    <!-- Generator: Sketch 60 (88103) - https://sketch.com -->
    <title>twitter</title>
    <desc>Created with Sketch.</desc>
    <g id="Page-1" stroke="none" stroke-width="1" fill="none" fill-rule="evenodd">
        <g id="Campaigns" transform="translate(-1209.000000, -576.000000)" fill="#EEEEEE" fill-rule="nonzero">
            <g id="Live-Assets----Videos" transform="translate(841.000000, 556.000000)">
                <g id="Social-Icons" transform="translate(312.000000, 20.000000)">
                    <g id="twitter" transform="translate(56.000000, 0.000000)">
                        <path d="M13,1.18384615 C12.5165625,1.38461538 12.0014375,1.51769231 11.464375,1.58230769 C12.016875,1.27 12.4385625,0.779230769 12.6368125,0.187692308 C12.1216875,0.478461538 11.5529375,0.683846154 10.9468125,0.798461538 C10.4576875,0.305384615 9.7605625,0 9.0000625,0 C7.5245625,0 6.3366875,1.13384615 6.3366875,2.52384615 C6.3366875,2.72384615 6.3545625,2.91615385 6.3984375,3.09923077 C4.18275,2.99692308 2.2221875,1.99153846 0.905125,0.46 C0.6751875,0.837692308 0.5403125,1.27 0.5403125,1.73538462 C0.5403125,2.60923077 1.015625,3.38384615 1.724125,3.83230769 C1.2959375,3.82461538 0.875875,3.70692308 0.52,3.52153846 C0.52,3.52923077 0.52,3.53923077 0.52,3.54923077 C0.52,4.77538462 1.4438125,5.79384615 2.65525,6.02846154 C2.4383125,6.08461538 2.201875,6.11153846 1.9565,6.11153846 C1.785875,6.11153846 1.613625,6.10230769 1.4519375,6.06846154 C1.79725,7.06769231 2.777125,7.80230769 3.94225,7.82615385 C3.0355,8.49769231 1.8841875,8.90230769 0.6378125,8.90230769 C0.41925,8.90230769 0.209625,8.89307692 0,8.86769231 C1.1805625,9.58846154 2.5796875,10 4.0885,10 C8.99275,10 11.674,6.15384615 11.674,2.82 C11.674,2.70846154 11.6699375,2.60076923 11.66425,2.49384615 C12.1931875,2.13846154 12.637625,1.69461538 13,1.18384615 Z" id="Path"></path>
                    </g>
                </g>
            </g>
        </g>
    </g>
</svg>