<?xml version="1.0" encoding="utf-8"?>
<svg version="1.1" xmlns="http://www.w3.org/2000/svg" xmlns:xlink="http://www.w3.org/1999/xlink" height="120.75" width="161">
  <defs>
    <path id="path-1" opacity="1" fill-rule="evenodd" d="M158.99573709183255,71.66316081001676 C155.277011278447,60.7859397238994 147.0031136290473,52.756092894939606 137.03053875624926,48.97153651473084 C131.86406952625393,47.010745345811856 128.43149629955707,42.10263896898739 128.35571303209335,36.57980146114744 C128.35414076513354,36.45911804892355 128.3519395913898,36.33812035698032 128.34910951086206,36.21712266503709 C127.87522824916988,15.92030983106912 110.90071969747311,-0.34303708497830376 90.59048956380491,0.005499123762063067 C78.61170205026615,0.2110380602058861 68.01650946137613,6.088383091453528 61.376197183237885,15.065783274202515 C55.65786225034287,22.796750090076568 46.757258990755666,27.625972257348444 37.13812973052699,27.62094378183911 C36.85575058454185,27.62094378183911 36.57305698516475,27.623772299313103 36.28910557221978,27.630057893699764 C16.81909490188375,28.055906913396065 0.26312381489324016,44.75138844352646 0.0033853131296258544,64.2134743429458 C-0.27333367180013013,84.93456479801343 16.449926619716102,101.81829988002431 37.118948073617084,101.81829988002431 C53.13940503409014,101.81829988002431 66.78731115218248,91.67429337911096 71.98742689511812,77.4625644708698 C73.34806672215342,73.74400683172098 77.38093147411264,71.75084485171068 81.19556557204773,72.82002445688177 C81.24304803423453,72.83322420509374 81.2908449498133,72.84673823302508 81.33864186539208,72.85962370151773 C84.82876006281863,73.82257676155426 87.14282257429373,77.14639907322072 86.85729889438893,80.75401597144496 C86.47460911636675,85.5885808939455 87.03999631512096,90.57682859919989 88.68049966100565,95.46104971735505 C95.1333977175324,114.67454035878195 116.09706199970516,125.21862494240625 135.37462719415822,118.9314591571483 C155.09431385771495,112.5000389807165 165.68133065841383,91.21701638748135 158.99573709183255,71.66316081001676Z"/>
    <linearGradient id="linearGradient-2" x1="0.4410467918380691" y1="0.5000014586395949" x2="1.6892333984024683" y2="0.5000014586395949">
      <stop offset="1" stop-color="rgb(217,206,255)" stop-opacity="1"/>
      <stop offset="0.5112" stop-color="rgb(255,223,255)" stop-opacity="1"/>
      <stop offset="0.0007011211" stop-color="rgb(255,240,213)" stop-opacity="1"/>
    </linearGradient>
    <path id="path-3" opacity="1" fill-rule="evenodd" d="M146.91250000000002,37.71125396094497 L146.91250000000002,22.668737106195955 C146.91250000000002,20.93052008827021 145.5011257150528,19.521188962745768 143.76038873967016,19.521188962745768 L126.08322524133402,19.521188962745768 C124.34248826595136,19.521188962745768 122.93111398100417,20.9302053649282 122.93111398100417,22.668737106195955 L122.93111398100417,32.52115132784459 C120.04564466910341,31.953390418857072 117.03158207710915,31.81176491495221 113.96929700507987,32.158590037848136 C113.58131090754301,26.769896975938924 111.87650440748061,21.74596826742024 109.1769910643424,17.403100871012974 C111.19224947835592,16.101405128456236 112.52735029814966,13.839173746082482 112.52735029814966,11.263792638407962 C112.52735029814966,7.227465777119228 109.2507430926313,3.955601913574772 105.20856461910562,3.955601913574772 C102.67672682746182,3.955601913574772 100.44525520231079,5.239673148978906 99.1312714162579,7.190957869445974 C94.04963059531018,3.9150026024553752 87.99660622228402,2.0124999999999886 81.49791788344378,2.0124999999999886 C64.31306493291635,2.0124999999999886 50.23934989366939,15.307358136562941 49.026223582199584,32.158590037848136 C33.49826983130761,30.399601279349678 19.195734396600255,41.158104002647455 16.73733345363727,56.72274688179242 C15.727813168982085,63.115092681374115 16.870654427851804,69.3491326399244 19.626900100443,74.69282026392607 L15.452346191527006,74.69282026392607 C14.142774919987106,74.69282026392607 13.081250000000011,75.7528084798185 13.081250000000011,77.06048396587346 L13.081250000000011,99.26358629805257 C13.081250000000011,100.57126178410752 14.142774919987106,101.63124999999997 15.452346191527003,101.63124999999997 L49.61088175517348,101.63124999999997 C50.92045302671338,101.63124999999997 51.981977946700475,100.57126178410755 51.981977946700475,99.26358629805257 L51.981977946700475,91.31871025233154 C72.92251110701596,92.67359423968809 108.7048520114503,92.31764213987387 121.83365858569685,90.24896561283677 C137.8501407291007,87.72488440991002 148.78529723116492,72.71383988936206 146.25755677442606,56.720229095056354 C145.274826756457,50.50129585692261 142.3997583716226,45.0515464666633 138.31250921414258,40.8594315510792 L143.7600735600621,40.8594315510792 C145.5011257150528,40.858802104395174 146.91250000000002,39.44978570221274 146.91250000000002,37.71125396094497Z"/>
    <path id="path-4" opacity="1" fill-rule="evenodd" d="M146.5505209464624,63.03186292900236 C144.09917175929,47.39040272027705 129.8452861345449,36.57982604814071 114.37137997635826,38.34732275490816 C113.16235344875362,21.4118702363429 99.13620080205826,8.050000000000011 82.00942439490937,8.050000000000011 C64.88264798776052,8.050000000000011 50.85649534106515,21.411553934140542 49.6474688134605,38.34732275490816 C34.171992083011475,36.57950974593836 19.91779234381391,47.39198423128883 17.46769961445141,63.03470964882357 C14.950386392257679,79.10855496817005 25.84984377894351,94.19395590515285 41.81282613964517,96.72911805703924 C57.62283476198793,99.23960863714184 106.39852694345069,99.24119014815362 122.2091637946984,96.72848545263453 C138.17151792649508,94.19205809193872 149.069718855371,79.1053919461465 146.5505209464624,63.03186292900236Z"/>
    <path id="path-5" opacity="1" fill-rule="evenodd" d="M141.88124999999994,50.312500000000014 L126.85597816361307,50.312500000000014 C125.15199861525346,50.312500000000014 123.76874999999995,48.910254078769626 123.76874999999995,47.175170814714754 L123.76874999999995,38.23750000000001 C131.14123977417975,39.71189727735634 137.64877471239876,44.08521056323393 141.88124999999994,50.312500000000014Z"/>
    <path id="path-6" opacity="1" fill-rule="evenodd" d="M117.73125000000005,54.28016116427712 L117.73125000000005,97.31011942702968 C100.2604630863805,99.04662685765678 63.76144538831199,99.04662685765678 46.28750000000002,97.31011942702968 L46.28750000000002,54.28016116427712 C46.28750000000002,53.75604589787473 46.71168315119124,53.33125000000001 47.235042407724265,53.33125000000001 L116.7837075922758,53.33125000000001 C117.30675100133959,53.33125000000001 117.73125000000005,53.75604589787473 117.73125000000005,54.28016116427712Z"/>
    <path id="path-7" opacity="1" fill-rule="evenodd" d="M104.7783710819898,59.224732109578795 L102.63743697765653,56.349999999999966 L61.381313022343505,56.349999999999966 L59.24037891801023,59.224732109578795 C57.08404241004866,62.12340719344015 59.1460784876329,66.24443412225118 62.751812610494,66.24443412225118 L71.50666456672512,66.24443412225118 L71.50666456672512,98.52271384644052 C78.39436800148516,98.64242871785311 85.62752534619413,98.64242871785311 92.51208543327492,98.52271384644052 L92.51208543327492,66.24443412225118 L101.26693738950604,66.24443412225118 C104.87267151236713,66.24443412225118 106.93470758995137,62.12340719344014 104.7783710819898,59.224732109578795Z"/>
    <path id="path-8" opacity="1" fill-rule="evenodd" d="M62.75211711274804,62.81195292062907 L71.50520578990947,62.81195292062907 L71.50520578990947,114.58102579786416 C71.50520578990947,116.32072065521805 72.91245174127413,117.73125 74.64879899062379,117.73125 L89.3697169357346,117.73125 C91.10574985719697,117.73125 92.5133101364489,116.32072065521805 92.5133101364489,114.58102579786416 L92.5133101364489,62.81195292062907 L101.26639881361032,62.81195292062907 C104.87268266440478,62.81195292062907 106.93498793286659,58.690296717754606 104.7780699703327,55.79427018896379 L85.52108628384518,29.939500392392212 C83.76870831224412,27.58683320253594 80.25043626988881,27.58683320253594 78.49805829828775,29.939500392392212 L59.24107461180023,55.79427018896379 C57.08352799349176,58.690611708675725 59.14583326195358,62.81195292062907 62.75211711274804,62.81195292062907Z"/>
    <path id="path-9" opacity="1" fill-rule="evenodd" d="M50.93924576054899,107.66875 L16.479504239450975,107.66875 C15.158385322141537,107.66875 14.087499999999977,106.59969901511789 14.087499999999977,105.28084306435031 L14.087499999999977,82.8879069356497 C14.087499999999977,81.56905098488214 15.15838532214154,80.5 16.479504239450975,80.5 L50.93924576054899,80.5 C52.260364677858426,80.5 53.33124999999999,81.56905098488211 53.33124999999999,82.8879069356497 L53.33124999999999,105.28084306435031 C53.33124999999999,106.59969901511786 52.260364677858426,107.66875 50.93924576054899,107.66875Z"/>
    <path id="path-10" opacity="1" fill-rule="evenodd" d="M35.633201715825294,100.62499999999997 C35.224080899035734,100.62499999999997 34.814960082246174,100.46648055759351 34.503005459444125,100.14911683785765 L30.655671653431654,96.23907887013938 C30.03144278218945,95.6046762655906 30.03144278218945,94.57592406456344 30.655671653431654,93.94184629493762 L34.503005459444125,90.03180832721935 C35.126595079410095,89.39773055759352 36.13948872660238,89.39773055759352 36.76307834656835,90.03180832721935 C37.387307217810545,90.66621093176813 37.387307217810545,91.69496313279528 36.76307834656835,92.32904090242111 L34.04626042257516,95.09046258253849 L36.76307834656835,97.85188426265589 C37.387307217810545,98.48628686720465 37.387307217810545,99.51503906823181 36.76307834656835,100.14911683785765 C36.45144334940442,100.46615572267055 36.04232253261486,100.62499999999997 35.633201715825294,100.62499999999997Z"/>
    <path id="path-11" opacity="1" fill-rule="evenodd" d="M32.144891302490926,99.92142381139222 C31.82681961211389,99.92142381139222 31.508747921736862,99.77861294991557 31.266218257824374,99.4926985817543 L30.551480865999924,95.9702745363367 C30.066173044666844,95.3987384452221 30.066173044666844,94.47193107166316 30.551480865999924,93.90068762575649 L31.266218257824374,90.37797093513069 C31.751029092141238,89.80672748922402 32.386369457375366,89.91528699381931 32.55055360372603,90.48682308493389 C32.714737750076694,91.05835917604847 33.999999999999616,90.16213435862922 34,91.59958847767437 L34,95.0906249999999 L34,98.90010480520658 C33.83581585364922,99.36976095593394 33.34600414212639,98.33039552605283 33.02331585364937,99.4926985817543 C32.85102707293464,100.11327200644513 32.46296299286796,99.92142381139222 32.144891302490926,99.92142381139222Z"/>
    <path id="path-12" opacity="1" fill-rule="evenodd" d="M144.7444761328987,47.293750000000024 L126.9430238671012,47.293750000000024 C125.19004770791709,47.293750000000024 123.76874999999995,45.89836066329393 123.76874999999995,44.17664283975931 L123.76874999999995,29.27960716024074 C123.76874999999995,27.55820101625419 125.18973031226994,26.162500000000023 126.9430238671012,26.162500000000023 L144.7444761328987,26.162500000000023 C146.49745229208284,26.162500000000023 147.91874999999996,27.557889336706122 147.91874999999996,29.27960716024074 L147.91874999999996,44.17664283975931 C147.91874999999996,45.89804898374585 146.4974522920828,47.293750000000024 144.7444761328987,47.293750000000024Z"/>
    <path id="path-13" opacity="1" fill-rule="evenodd" d="M133.3102053426823,42.26249999999995 C133.06153378868015,42.26249999999995 132.80957845665395,42.19460834800669 132.57792284332183,42.052328235216976 C131.85996955715714,41.61119491748083 131.6065215987564,40.62043157499538 132.01191892208763,39.839190316412584 L136.0697729839739,32.01963124090113 C136.47517030730515,31.23871482275849 137.38597092106335,30.96292528906336 138.1033271566782,31.40373376635935 C138.8212804428429,31.844867084095497 139.07472840124365,32.83563042658095 138.6693310779124,33.616871685163744 L134.61147701602613,41.4364307606752 C134.33683376310657,41.96527099725432 133.8311319474047,42.26249999999997 133.3102053426823,42.26249999999995Z"/>
    <ellipse id="ellipse-14" opacity="1" rx="7.335878415697705" ry="7.301916015625005" cx="94.40253720930274" cy="98.30465039062506"/>
    <ellipse id="ellipse-15" opacity="1" rx="7.33587841569768" ry="7.301916015625" cx="106.23231642441927" cy="17.51472460937497"/>
    <path id="path-16" opacity="1" fill-rule="evenodd" d="M148.92504882812494,44.54339599609375 L148.92504882812494,29.4091796875 C148.92504882812494,26.79022216796875 146.8062133789062,24.659210205078125 144.20190429687494,24.659210205078125 L139.70800781249994,24.659210205078125 C138.83862304687494,24.659210205078125 138.13366699218744,25.36785888671875 138.13366699218744,26.242431640625 C138.13366699218744,27.11700439453125 138.83862304687494,27.82562255859375 139.70800781249994,27.82562255859375 L144.20190429687494,27.82562255859375 C145.0700073242187,27.82562255859375 145.77624511718744,28.535858154296875 145.77624511718744,29.4091796875 L145.77624511718744,44.54339599609375 C145.77624511718744,45.416717529296875 145.0700073242187,46.126922607421875 144.20190429687494,46.126922607421875 L126.54187011718744,46.126922607421875 C125.6737670898437,46.126922607421875 124.96716308593744,45.416717529296875 124.96716308593744,44.54339599609375 L124.96716308593744,29.4091796875 C124.96716308593744,28.535858154296875 125.6737670898437,27.82562255859375 126.54187011718744,27.82562255859375 L131.03576660156244,27.82562255859375 C131.9050903320312,27.82562255859375 132.61010742187494,27.11700439453125 132.61010742187494,26.242431640625 C132.61010742187494,25.36785888671875 131.9050903320312,24.659210205078125 131.03576660156244,24.659210205078125 L126.54187011718744,24.659210205078125 C123.9375610351562,24.659210205078125 121.8184204101562,26.789886474609375 121.8184204101562,29.4091796875 L121.8184204101562,37.45758056640625 C119.84667968749994,37.193511962890625 117.85131835937494,37.119720458984375 115.85754394531244,37.24322509765625 C115.32446289062494,32.77410888671875 113.90624999999994,28.412384033203125 111.71032714843744,24.497100830078125 C113.46923828124994,22.86322021484375 114.57348632812494,20.526397705078125 114.57348632812494,17.9346923828125 C114.57348632812494,13.007415771484375 110.58715820312494,8.99871826171875 105.6874389648437,8.99871826171875 C103.16528320312494,8.99871826171875 100.88684082031244,10.0626220703125 99.2677612304687,11.765838623046875 C94.04748535156244,8.677001953125 88.0947875976562,7.04376220703125 81.9994506835937,7.04376220703125 C73.3230590820312,7.04376220703125 65.05606079101557,10.322906494140625 58.72079467773432,16.277374267578125 C52.80871582031244,21.834442138671875 49.08880615234369,29.228363037109375 48.14071655273432,37.242584228515625 C32.30410766601557,36.25115966796875 18.247161865234318,47.476776123046875 15.746459960937443,63.424163818359375 C14.850616455078068,69.13766479492188 15.538299560546818,74.88345336914062 17.725128173828068,80.16726684570312 L16.018188476562443,80.16726684570312 C13.843963623046818,80.16726684570312 12.075012207031193,81.94583129882812 12.075012207031193,84.13226318359375 L12.075012207031193,106.47076416015625 C12.075012207031193,108.65716552734375 13.843963623046818,110.43572998046875 16.018188476562443,110.43572998046875 L50.14361572265619,110.43572998046875 C52.31781005859369,110.43572998046875 54.08679199218744,108.65716552734375 54.08679199218744,106.47076416015625 L54.08679199218744,100.1610107421875 C58.69842529296869,100.43173217773438 64.11804199218744,100.63375854492188 69.90417480468744,100.7506103515625 L69.90292358398432,114.99380493164062 C69.90292358398432,117.61276245117188 72.02169799804682,119.7437744140625 74.6260375976562,119.7437744140625 L89.37255859374994,119.7437744140625 C91.9768676757812,119.7437744140625 94.09594726562494,117.61306762695312 94.09594726562494,114.99380493164062 L94.09594726562494,108.2176513671875 C98.4950561523437,108.1195068359375 102.11425781249994,104.792236328125 102.69799804687494,100.50424194335938 C111.4133911132812,100.17431640625 118.2634887695312,99.6439208984375 122.5416870117187,98.9647216796875 C130.6959838867187,97.67092895507812 137.86096191406244,93.2607421875 142.71691894531244,86.547607421875 C147.5729370117187,79.83416748046875 149.53869628906244,71.62075805664062 148.25183105468744,63.420989990234375 C147.43688964843744,58.228363037109375 145.3596801757812,53.400848388671875 142.20373535156244,49.293365478515625 L144.20190429687494,49.293365478515625 C146.8062133789062,49.29302978515625 148.92504882812494,47.162353515625 148.92504882812494,44.54339599609375 L140.1702270507812,84.68478393554688 C144.5315551757812,78.6552734375 146.29675292968744,71.27908325195312 145.1411743164062,63.914306640625 C144.2771606445312,58.40789794921875 141.83593749999994,53.35809326171875 138.08264160156244,49.29302978515625 L126.54187011718744,49.29302978515625 C123.9371948242187,49.29302978515625 121.8184204101562,47.162017822265625 121.8184204101562,44.5430908203125 L121.8184204101562,40.655975341796875 C119.4420776367187,40.300384521484375 117.02319335937494,40.2557373046875 114.6172485351562,40.529327392578125 C114.1896362304687,40.57745361328125 113.7636108398437,40.44952392578125 113.43395996093744,40.17437744140625 C113.10400390624994,39.898895263671875 112.90026855468744,39.499908447265625 112.86938476562494,39.069915771484375 C112.54760742187494,34.568511962890625 111.2307739257812,30.14093017578125 109.05151367187494,26.203155517578125 C108.01306152343744,26.6322021484375 106.87731933593744,26.87030029296875 105.68713378906244,26.87030029296875 C100.78735351562494,26.87030029296875 96.80102539062494,22.86163330078125 96.80102539062494,17.934356689453125 C96.80102539062494,16.682037353515625 97.05957031249994,15.48956298828125 97.52429199218744,14.406646728515625 C92.82324218749994,11.660400390625 87.4747924804687,10.210174560546875 81.99914550781244,10.210174560546875 C74.12377929687494,10.210174560546875 66.62036132812494,13.186614990234375 60.87042236328119,18.59075927734375 C55.14822387695307,23.96923828125 51.68869018554682,31.2421875 51.12918090820307,39.070220947265625 C51.09829711914057,39.500244140625 50.89459228515619,39.899200439453125 50.56460571289057,40.1746826171875 C50.23492431640619,40.450164794921875 49.80859374999994,40.57904052734375 49.38128662109369,40.529632568359375 C34.58410644531244,38.843505859375 21.177703857421818,49.115081787109375 18.856445312499943,63.91748046875 C17.982360839843693,69.49005126953125 18.785614013671818,75.09622192382812 21.169525146484318,80.16693115234375 L50.14361572265619,80.16693115234375 C52.31781005859369,80.16693115234375 54.08679199218744,81.94549560546875 54.08679199218744,84.13192749023438 L54.08679199218744,96.98855590820312 C59.10241699218744,97.28619384765625 65.10266113281244,97.5018310546875 71.50595092773432,97.61328125 C72.3649291992187,97.628173828125 73.05322265624994,98.3323974609375 73.05322265624994,99.19619750976562 L73.05163574218744,114.99346923828125 C73.05163574218744,115.86679077148438 73.75793457031244,116.5770263671875 74.6260375976562,116.5770263671875 L89.37255859374994,116.5770263671875 C90.2406616210937,116.5770263671875 90.9472045898437,115.86679077148438 90.9472045898437,114.99346923828125 L90.9472045898437,107.71450805664062 C87.4933471679687,106.48846435546875 85.0105590820312,103.17449951171875 85.0105590820312,99.2867431640625 C85.0105590820312,95.39901733398438 87.49304199218744,92.084716796875 90.9472045898437,90.85867309570312 L90.9472045898437,62.952972412109375 C90.9472045898437,62.07843017578125 91.65222167968744,61.369781494140625 92.52160644531244,61.369781494140625 L101.28991699218744,61.369781494140625 C102.3781127929687,61.369781494140625 103.31860351562494,60.78558349609375 103.80639648437494,59.807769775390625 C104.2941284179687,58.829986572265625 104.19677734374994,57.722686767578125 103.5459594726562,56.8455810546875 L84.25549316406244,30.855255126953125 C83.71862792968744,30.1326904296875 82.89648437499994,29.7178955078125 81.9994506835937,29.7178955078125 C81.1023559570312,29.7178955078125 80.27990722656244,30.1326904296875 79.7433471679687,30.8555908203125 L60.45291137695307,56.8455810546875 C59.80206298828119,57.722381591796875 59.70477294921869,58.82965087890625 60.19250488281244,59.807769775390625 C60.68023681640619,60.785888671875 61.62078857421869,61.369781494140625 62.70898437499994,61.369781494140625 L71.47729492187494,61.369781494140625 C72.34664916992182,61.369781494140625 73.05163574218744,62.07843017578125 73.05163574218744,62.952972412109375 L73.05163574218744,90.474609375 C73.05163574218744,91.34915161132812 72.34664916992182,92.05780029296875 71.47729492187494,92.05780029296875 C70.60791015624994,92.05780029296875 69.90292358398432,91.34915161132812 69.90292358398432,90.474609375 L69.90292358398432,64.53619384765625 L62.70898437499994,64.53619384765625 C60.43841552734369,64.53619384765625 58.39550781249994,63.26837158203125 57.37783813476557,61.227294921875 C56.35986328124994,59.1865234375 56.57144165039057,56.7816162109375 57.92950439453119,54.952056884765625 L77.21997070312494,28.96142578125 C78.3569946289062,27.430145263671875 80.09887695312494,26.5517578125 81.9994506835937,26.5517578125 C83.8997192382812,26.5517578125 85.6419067382812,27.430145263671875 86.77856445312494,28.96142578125 L106.0690307617187,54.951751708984375 C107.42712402343744,56.7816162109375 107.6383666992187,59.1865234375 106.62072753906244,61.227294921875 C105.60302734374994,63.26837158203125 103.5601196289062,64.53619384765625 101.28955078124994,64.53619384765625 L94.0956420898437,64.53619384765625 L94.0956420898437,90.3558349609375 C98.2418823242187,90.44863891601562 101.6951293945312,93.40924072265625 102.5673217773437,97.34033203125 C111.16467285156244,97.01516723632812 117.89038085937494,96.4974365234375 122.0504760742187,95.83724975585938 C129.3738403320312,94.67486572265625 135.8088989257812,90.71429443359375 140.1702270507812,84.68478393554688 L105.6870727539062,12.165130615234375 C108.8506469726562,12.165130615234375 111.42443847656244,14.75335693359375 111.42443847656244,17.934661865234375 C111.42443847656244,21.115966796875 108.8506469726562,23.7042236328125 105.6870727539062,23.7042236328125 C102.52355957031244,23.7042236328125 99.9497680664062,21.115966796875 99.9497680664062,17.934661865234375 C99.9497680664062,14.75335693359375 102.52355957031244,12.165130615234375 105.6870727539062,12.165130615234375 L50.14328002929682,107.26931762695312 C50.58126831054682,107.26931762695312 50.93771362304682,106.91119384765625 50.93771362304682,106.47073364257812 L50.93771362304682,84.13226318359375 C50.93771362304682,83.69210815429688 50.58126831054682,83.33367919921875 50.14328002929682,83.33367919921875 L16.017852783203068,83.33367919921875 C15.579864501953068,83.33367919921875 15.223419189453068,83.69180297851562 15.223419189453068,84.13226318359375 L15.223419189453068,106.47073364257812 C15.223419189453068,106.910888671875 15.579864501953068,107.26931762695312 16.017852783203068,107.26931762695312 L50.14328002929682,107.26931762695312 L93.8963012695312,105.05630493164062 C90.73278808593744,105.05630493164062 88.1589965820312,102.46807861328125 88.1589965820312,99.28677368164062 C88.1589965820312,96.10513305664062 90.73278808593744,93.51690673828125 93.8963012695312,93.51690673828125 C97.0598754882812,93.51690673828125 99.63366699218744,96.10513305664062 99.63366699218744,99.28677368164062 C99.63366699218744,102.46807861328125 97.0598754882812,105.05630493164062 93.8963012695312,105.05630493164062 L148.92504882812494,44.54339599609375Z"/>
    <ellipse id="ellipse-17" opacity="1" rx="2.0124999999999953" ry="2.012500000000003" cx="100.62499999999994" cy="80.49999999999996"/>
    <ellipse id="ellipse-18" opacity="1" rx="2.0124999999999953" ry="2.0124999999999953" cx="100.62499999999994" cy="75.46875"/>
    <ellipse id="ellipse-19" opacity="1" rx="2.0124999999999953" ry="2.0124999999999953" cx="100.62499999999994" cy="70.4375"/>
  </defs>
  <g opacity="1">
    <g opacity="1">
      <use xlink:href="#path-1" fill="url(#linearGradient-2)" fill-opacity="1"/>
    </g>
    <g opacity="0.1">
      <use xlink:href="#path-3" fill="rgb(89,11,178)" fill-opacity="1"/>
    </g>
    <g opacity="1">
      <use xlink:href="#path-4" fill="rgb(255,160,82)" fill-opacity="1"/>
    </g>
    <g opacity="1">
      <use xlink:href="#path-5" fill="rgb(255,135,54)" fill-opacity="1"/>
    </g>
    <g opacity="1">
      <use xlink:href="#path-6" fill="rgb(255,190,146)" fill-opacity="1"/>
    </g>
    <g opacity="1">
      <use xlink:href="#path-7" fill="rgb(255,160,82)" fill-opacity="1"/>
    </g>
    <g opacity="1">
      <use xlink:href="#path-8" fill="rgb(255,231,131)" fill-opacity="1"/>
    </g>
    <g opacity="1">
      <use xlink:href="#path-9" fill="rgb(245,244,249)" fill-opacity="1"/>
    </g>
    <g transform="translate(33.709375, 95.09062499999997) scale(-1, 1) translate(-33.709375, -95.09062499999997)" opacity="1">
      <use xlink:href="#path-10" fill="rgb(193,130,249)" fill-opacity="1"/>
    </g>
    <g transform="translate(32.09375000000006, 94.97471430086102) scale(-1, 1) translate(-32.09375000000006, -94.97471430086102)" opacity="1">
      <use xlink:href="#path-11" fill="rgb(193,130,249)" fill-opacity="1"/>
    </g>
    <g opacity="1">
      <use xlink:href="#path-12" fill="rgb(255,190,146)" fill-opacity="1"/>
    </g>
    <g opacity="1">
      <use xlink:href="#path-13" fill="rgb(245,244,249)" fill-opacity="1"/>
    </g>
    <g opacity="1">
      <g opacity="1">
        <use xlink:href="#ellipse-14" fill="rgb(255,190,146)" fill-opacity="1"/>
      </g>
      <g opacity="1">
        <use xlink:href="#ellipse-15" fill="rgb(255,190,146)" fill-opacity="1"/>
      </g>
    </g>
    <g opacity="1">
      <use xlink:href="#path-16" fill="rgb(89,11,178)" fill-opacity="1"/>
    </g>
    <g opacity="1">
      <use xlink:href="#ellipse-17" fill="rgb(245,244,249)" fill-opacity="1"/>
    </g>
    <g opacity="1">
      <use xlink:href="#ellipse-18" fill="rgb(245,244,249)" fill-opacity="1"/>
    </g>
    <g opacity="1">
      <use xlink:href="#ellipse-19" fill="rgb(245,244,249)" fill-opacity="1"/>
    </g>
  </g>
</svg>