<?xml version="1.0" encoding="UTF-8"?>
<svg width="15px" height="11px" viewBox="0 0 15 11" version="1.1" xmlns="http://www.w3.org/2000/svg" xmlns:xlink="http://www.w3.org/1999/xlink">
    <!-- Generator: Sketch 60 (88103) - https://sketch.com -->
    <title>youtube</title>
    <desc>Created with Sketch.</desc>
    <g id="Page-1" stroke="none" stroke-width="1" fill="none" fill-rule="evenodd">
        <g id="Campaigns" transform="translate(-1232.000000, -576.000000)" fill-rule="nonzero">
            <g id="Live-Assets----Videos" transform="translate(841.000000, 556.000000)">
                <g id="Social-Icons" transform="translate(312.000000, 20.000000)">
                    <g id="youtube" transform="translate(79.000000, 0.000000)">
                        <path d="M14.1033099,1.59604237 C13.9373071,0.971963119 13.4509444,0.480035312 12.8341746,0.311984055 C11.7073116,-5.32907052e-15 7.19985988,-5.32907052e-15 7.19985988,-5.32907052e-15 C7.19985988,-5.32907052e-15 2.69251798,-5.32907052e-15 1.56565505,0.300091531 C0.960750349,0.468031651 0.462522456,0.972074257 0.296519757,1.59604237 C-1.0658141e-14,2.7359456 -1.0658141e-14,5.10000001 -1.0658141e-14,5.10000001 C-1.0658141e-14,5.10000001 -1.0658141e-14,7.47594692 0.296519757,8.60395763 C0.462632339,9.22792571 0.948885164,9.71996469 1.5657649,9.88801595 C2.70438316,10.2 7.19996973,10.2 7.19996973,10.2 C7.19996973,10.2 11.7073116,10.2 12.8341746,9.89990847 C13.4510543,9.73196835 13.9373071,9.2399294 14.1034197,8.6159613 C14.4,7.47594692 14.4,5.11200365 14.4,5.11200365 C14.4,5.11200365 14.4118046,2.7359456 14.1033099,1.59604237 Z" id="Path" fill="#FF0000"></path>
                        <polygon id="Path" fill="#FFFFFF" points="6 7.2 9.6 5.10000001 6 3"></polygon>
                    </g>
                </g>
            </g>
        </g>
    </g>
</svg>