<svg width="167px" height="42px" viewBox="0 0 167 42" version="1.1" xmlns="http://www.w3.org/2000/svg" xmlns:xlink="http://www.w3.org/1999/xlink">
    <g id="Page-1" stroke="none" stroke-width="1" fill="none" fill-rule="evenodd">
        <g id="Step-4---Review" transform="translate(-149.000000, -628.000000)">
            <rect fill="#F2F2F2" x="0" y="0" width="1440" height="880"></rect>
            <g id="Facebook" transform="translate(150.000000, 628.000000)">
                <rect id="Rectangle-112" fill="#3C5A99" fill-rule="evenodd" x="0" y="0" width="164.8" height="40" rx="4"></rect>
                <text id="Connect-Facebook" font-family="Helvetica" font-size="11.2" font-weight="normal" fill="#FFFFFF">
                    <tspan x="54.5933594" y="23.8">Connect Facebook</tspan>
                </text>
                <line x1="38" y1="0.4" x2="38" y2="39.6" id="Line" stroke="#4D73C3" stroke-width="0.8" stroke-linecap="square"></line>
                <g id="facebook-logo" stroke-width="1" fill-rule="evenodd" transform="translate(14.400000, 9.600000)" fill="#FFFFFF">
                    <path d="M10.0083665,0.403994882 L7.51387943,0.4 C4.71140872,0.4 2.90032904,2.25462376 2.90032904,5.12514591 L2.90032904,7.30375456 L0.392233832,7.30375456 C0.175504628,7.30375456 0,7.47912986 0,7.6954527 L0,10.8520084 C0,11.0683312 0.175704747,11.2435068 0.392233832,11.2435068 L2.90032904,11.2435068 L2.90032904,19.2085016 C2.90032904,19.4248244 3.07583367,19.6 3.29256287,19.6 L6.5649137,19.6 C6.7816429,19.6 6.95714753,19.4246247 6.95714753,19.2085016 L6.95714753,11.2435068 L9.88969578,11.2435068 C10.106425,11.2435068 10.2819296,11.0683312 10.2819296,10.8520084 L10.2831303,7.6954527 C10.2831303,7.59158578 10.2417056,7.49211323 10.1682618,7.41860741 C10.0948181,7.34510159 9.99475841,7.30375456 9.89069638,7.30375456 L6.95714753,7.30375456 L6.95714753,5.45692082 C6.95714753,4.56925814 7.16907387,4.1186355 8.32756451,4.1186355 L10.0079663,4.11803627 C10.2244954,4.11803627 10.4,3.94266097 10.4,3.72653787 L10.4,0.795493274 C10.4,0.579569926 10.2246955,0.40439437 10.0083665,0.403994882 Z" id="Path" fill-rule="nonzero"></path>
                </g>
            </g>
        </g>
    </g>
</svg>
