<svg width="167px" height="42px" viewBox="0 0 167 42" version="1.1" xmlns="http://www.w3.org/2000/svg" xmlns:xlink="http://www.w3.org/1999/xlink">
    <g id="Page-1" stroke="none" stroke-width="1" fill="none" fill-rule="evenodd">
        <g id="Step-4---Review" transform="translate(-341.000000, -628.000000)">
            <rect fill="#F2F2F2" x="0" y="0" width="1440" height="880"></rect>
            <g id="Instagram" transform="translate(342.000000, 628.000000)">
                <rect id="Rectangle-112" fill="#B1554A" fill-rule="evenodd" x="0" y="0" width="164.8" height="40" rx="4"></rect>
                <g id="instagram-logo" stroke-width="1" fill-rule="evenodd" transform="translate(8.000000, 8.800000)" fill="#FFFFFF">
                    <path d="M15.6390531,0 L5.96069134,0 C2.67396813,0 0,2.67409589 0,5.96081911 L0,15.6391809 C0,18.9260319 2.67396813,21.6 5.96069134,21.6 L15.6390531,21.6 C18.9260319,21.6 21.6,18.9259041 21.6,15.6391809 L21.6,5.96081911 C21.6,2.67409589 18.9260319,0 15.6390531,0 Z M19.6836711,15.6391809 C19.6836711,17.8692977 17.8692977,19.6835433 15.6391809,19.6835433 L5.96069134,19.6835433 C3.73070235,19.6835433 1.91645668,17.8692977 1.91645668,15.6391809 L1.91645668,5.96081911 C1.91645668,3.73083011 3.73070235,1.91645668 5.96069134,1.91645668 L15.6390531,1.91645668 C17.8691699,1.91645668 19.6836711,3.73083011 19.6836711,5.96081911 L19.6836711,15.6391809 L19.6836711,15.6391809 Z" id="Shape" fill-rule="nonzero"></path>
                    <path d="M10.8,5.2 C7.71211349,5.2 5.2,7.71217116 5.2,10.8001286 C5.2,13.8879574 7.71211349,16.4 10.8,16.4 C13.8878865,16.4 16.4,13.8879574 16.4,10.8001286 C16.4,7.71217116 13.8878865,5.2 10.8,5.2 Z M10.8,14.4715853 C8.7754746,14.4715853 7.12824186,12.8245719 7.12824186,10.8 C7.12824186,8.77529957 8.77534605,7.12815757 10.8,7.12815757 C12.8246539,7.12815757 14.4717581,8.77529957 14.4717581,10.8 C14.4717581,12.8245719 12.8245254,14.4715853 10.8,14.4715853 Z" id="Shape" fill-rule="nonzero"></path>
                    <path d="M16.8,3.6 C16.4847273,3.6 16.1750182,3.72763636 15.9523636,3.95127273 C15.7286182,4.17381818 15.6,4.48363636 15.6,4.8 C15.6,5.11538182 15.7287273,5.42509091 15.9523636,5.64872727 C16.1749091,5.87127273 16.4847273,6 16.8,6 C17.1163636,6 17.4250909,5.87127273 17.6487273,5.64872727 C17.8723636,5.42509091 18,5.11527273 18,4.8 C18,4.48363636 17.8723636,4.17381818 17.6487273,3.95127273 C17.4261818,3.72763636 17.1163636,3.6 16.8,3.6 Z" id="Path" fill-rule="nonzero"></path>
                </g>
                <text id="Connect-Instagram" font-family="Helvetica" font-size="11.2" font-weight="normal" fill="#FFFFFF">
                    <tspan x="46.4148437" y="22.2">Connect</tspan>
                    <tspan x="88.1304688" y="22.2" font-family="Verdana-Bold, Verdana" font-weight="bold"> </tspan>
                    <tspan x="91.9585938" y="22.2" font-size="14.4">Instagram</tspan>
                </text>
                <line x1="38" y1="0.4" x2="38" y2="39.6" id="Line" stroke-opacity="0.266553759" stroke="#FFFFFF" stroke-width="0.8" stroke-linecap="square"></line>
            </g>
        </g>
    </g>
</svg>
