<svg width="167px" height="42px" viewBox="0 0 167 42" version="1.1" xmlns="http://www.w3.org/2000/svg" xmlns:xlink="http://www.w3.org/1999/xlink">
    <g id="Page-1" stroke="none" stroke-width="1" fill="none" fill-rule="evenodd">
        <g id="Step-4---Review" transform="translate(-533.000000, -628.000000)">
            <rect fill="#F2F2F2" x="0" y="0" width="1440" height="880"></rect>
            <g id="Twitter---Push" transform="translate(534.000000, 628.000000)">
                <path d="M0,4.00002553 C0,1.79087243 1.57823566,0 3.53750672,0 L161.262493,0 C163.216204,0 164.8,1.79642476 164.8,4.00002553 L164.8,35.9999745 C164.8,38.2091276 163.221764,40 161.262493,40 L3.53750672,40 C1.58379571,40 0,38.2035752 0,35.9999745 L0,4.00002553 Z" id="Rectangle-112" fill="#03A9F4" fill-rule="evenodd"></path>
                <text id="Push-to-Twitter" font-family="Helvetica" font-size="11.2" font-weight="normal" fill="#FFFFFF">
                    <tspan x="64.6585938" y="23.8">Push to Twitter</tspan>
                </text>
                <line x1="38" y1="0.4" x2="38" y2="39.6" id="Line" stroke="#2FBEFF" stroke-width="0.8" stroke-linecap="square"></line>
                <g id="twitter" stroke-width="1" fill-rule="evenodd" transform="translate(12.000000, 13.600000)" fill="#FFFFFF">
                    <path d="M16,1.51532308 C15.405,1.77230769 14.771,1.94264615 14.11,2.02535385 C14.79,1.6256 15.309,0.997415385 15.553,0.240246154 C14.919,0.612430769 14.219,0.875323077 13.473,1.02203077 C12.871,0.390892308 12.013,0 11.077,0 C9.261,0 7.799,1.45132308 7.799,3.23052308 C7.799,3.48652308 7.821,3.73267692 7.875,3.96701538 C5.148,3.83606154 2.735,2.54916923 1.114,0.5888 C0.831,1.07224615 0.665,1.6256 0.665,2.22129231 C0.665,3.33981538 1.25,4.33132308 2.122,4.90535385 C1.595,4.89550769 1.078,4.74486154 0.64,4.50756923 C0.64,4.51741538 0.64,4.53021538 0.64,4.54301538 C0.64,6.11249231 1.777,7.41612308 3.268,7.71643077 C3.001,7.78830769 2.71,7.82276923 2.408,7.82276923 C2.198,7.82276923 1.986,7.81095385 1.787,7.76763077 C2.212,9.04664615 3.418,9.98695385 4.852,10.0174769 C3.736,10.8770462 2.319,11.3949538 0.785,11.3949538 C0.516,11.3949538 0.258,11.3831385 0,11.3506462 C1.453,12.2732308 3.175,12.8 5.032,12.8 C11.068,12.8 14.368,7.87692308 14.368,3.6096 C14.368,3.46683077 14.363,3.32898462 14.356,3.19212308 C15.007,2.73723077 15.554,2.16910769 16,1.51532308 Z" id="Path" fill-rule="nonzero"></path>
                </g>
            </g>
        </g>
    </g>
</svg>
