<?xml version="1.0" encoding="UTF-8"?>
<svg width="19px" height="15px" viewBox="0 0 19 15" version="1.1" xmlns="http://www.w3.org/2000/svg" xmlns:xlink="http://www.w3.org/1999/xlink">
    <!-- Generator: Sketch 58 (84663) - https://sketch.com -->
    <title>crown</title>
    <desc>Created with Sketch.</desc>
    <g id="Page-1" stroke="none" stroke-width="1" fill="none" fill-rule="evenodd">
        <g id="Publisher-Saas-Tool---DESIGN" transform="translate(-814.000000, -500.000000)" fill="#FFD340" fill-rule="nonzero">
            <g id="Select-Insert-Type" transform="translate(134.000000, 489.000000)">
                <g id="crown" transform="translate(680.000000, 11.000000)">
                    <path d="M16.9524,6.2464 C15.9684,6.9522 14.5872,7.8908 13.9642,7.8908 C13.8408,7.8908 13.8012,7.8536 13.7724,7.8186 C13.518,7.505 13.5868,6.4054 13.9774,4.5516 C14.016,4.368 13.9192,4.1834 13.747,4.1108 C13.5748,4.0378 13.3748,4.0976 13.2704,4.2528 C11.9262,6.257 11.3106,6.6774 11.0316,6.6774 C10.6358,6.6774 10.2336,5.539 9.8344,3.2934 C9.8026,3.1142 9.6514,2.9836 9.4718,2.9732 L9.4718,2.971 C9.468,2.971 9.4644,2.9718 9.4606,2.9718 C9.4568,2.9718 9.4526,2.971 9.449,2.971 L9.449,2.9732 C9.27,2.9836 9.1192,3.1142 9.0868,3.2934 C8.6872,5.539 8.2846,6.6774 7.8892,6.6774 C7.61,6.6774 6.9948,6.2568 5.6508,4.2528 C5.5466,4.0976 5.3466,4.0378 5.174,4.1108 C5.0016,4.1834 4.9048,4.368 4.9436,4.5516 C5.334,6.4054 5.4034,7.505 5.1484,7.8186 C5.1202,7.8538 5.08,7.8908 4.9568,7.8908 C4.3338,7.8908 2.9526,6.9524 1.9682,6.2464 C1.8126,6.1346 1.5992,6.1528 1.4642,6.2882 C1.329,6.423 1.3112,6.6364 1.4228,6.7922 C3.6734,9.6706 3.2498,12.9742 3.2498,12.9742 C3.2416,13.02 3.2372,13.0668 3.2372,13.116 C3.2372,13.9276 4.3736,14.2488 5.3634,14.438 C6.454,14.647 7.8904,14.7634 9.4166,14.7674 L9.4166,14.7678 C9.4312,14.7678 9.446,14.7678 9.4606,14.7674 C9.4752,14.7678 9.4898,14.7678 9.5048,14.7678 L9.5048,14.7674 C11.0306,14.7632 12.4672,14.6468 13.5574,14.438 C14.5474,14.2488 15.684,13.927 15.684,13.116 C15.684,13.0668 15.6796,13.0202 15.6714,12.9742 C15.6714,12.9742 15.248,9.67 17.4982,6.7922 C17.61,6.6366 17.5924,6.423 17.4572,6.2882 C17.3214,6.1532 17.1084,6.1348 16.9524,6.2464 Z M9.5044,13.6476 L9.5014,13.6476 C9.4874,13.6476 9.474,13.6482 9.4602,13.6482 C9.4462,13.6482 9.4332,13.6476 9.4192,13.6476 L9.4162,13.6476 C6.9908,13.6406 5.3874,13.3584 4.6798,13.1162 C5.3874,12.8736 6.9908,12.5914 9.4162,12.5846 L9.422,12.5846 C9.4346,12.5846 9.4472,12.5846 9.46,12.5846 C9.4728,12.5846 9.4848,12.5846 9.498,12.5846 L9.504,12.5846 C11.9292,12.5914 13.5324,12.8736 14.2402,13.1162 C13.5328,13.3584 11.9296,13.6406 9.5044,13.6476 Z" id="Shape"></path>
                    <circle id="Oval" cx="9.4604" cy="1.3146" r="1.1828"></circle>
                    <circle id="Oval" cx="4.4678" cy="2.7436" r="1"></circle>
                    <circle id="Oval" cx="14.371" cy="2.7436" r="1"></circle>
                    <circle id="Oval" cx="0.6644" cy="5.5518" r="1"></circle>
                    <circle id="Oval" cx="18.2356" cy="5.5518" r="1"></circle>
                </g>
            </g>
        </g>
    </g>
</svg>