<?xml version="1.0" encoding="UTF-8"?>
<svg width="100px" height="100px" viewBox="0 0 100 100" version="1.1" xmlns="http://www.w3.org/2000/svg" xmlns:xlink="http://www.w3.org/1999/xlink">
    <!-- Generator: Sketch 58 (84663) - https://sketch.com -->
    <title>outbox</title>
    <desc>Created with Sketch.</desc>
    <g id="Page-1" stroke="none" stroke-width="1" fill="none" fill-rule="evenodd" opacity="0.303269159">
        <g id="Publisher-Saas-Tool---UPLOAD" transform="translate(-694.000000, -302.000000)" fill="#000000" fill-rule="nonzero">
            <g id="outbox" transform="translate(694.000000, 302.000000)">
                <path d="M99.9836261,66.387138 C99.925159,65.5874697 101.051091,69.180208 81.0696175,9.22698729 C79.2303482,3.70812204 74.0862212,0 68.2694293,0 L31.7407897,0 C25.9239978,0 20.7802619,3.70792648 18.9407971,9.22698729 C18.6914808,9.97541739 0.307586987,65.1325838 0.215291099,65.4159586 C-0.0729380079,66.2991334 0.0115361945,65.003706 0.0115361945,86.5059638 C0.0115361945,93.9466536 6.06415191,100 13.5039435,100 L86.5062755,100 C93.9460671,100 99.9986828,93.9466536 99.9986828,86.5059638 C99.9988784,65.2806271 100.006309,66.692025 99.9836261,66.387138 Z M26.7319779,11.8242959 C27.4517685,9.66466342 29.4646792,8.21376118 31.7407897,8.21376118 L68.2694293,8.21376118 C70.5457353,8.21376118 72.5584505,9.66466342 73.2780456,11.8242959 L90.1949823,62.5824065 L75.0338184,62.5824065 C73.9448443,62.5824065 72.9004537,63.0149979 72.1302133,63.7851358 L64.9901877,70.9252411 L35.0196402,70.9252411 L27.8798102,63.7851358 C27.1097653,63.0149979 26.0653747,62.5824065 24.9762051,62.5824065 L9.81523669,62.5824065 L26.7319779,11.8242959 Z M91.7864998,86.5059638 C91.7864998,89.4175465 89.4177023,91.7862388 86.506471,91.7862388 L13.5039435,91.7862388 C10.5927122,91.7862388 8.22430587,89.4175465 8.22430587,86.5059638 L8.22430587,70.7961677 L23.2755751,70.7961677 L30.4154051,77.9362729 C31.18545,78.7064108 32.2298406,79.1390023 33.3190103,79.1390023 L66.6915998,79.1390023 C67.780574,79.1390023 68.8249645,78.7064108 69.595205,77.9362729 L76.7352305,70.7961677 L91.7864998,70.7961677 L91.7864998,86.5059638 L91.7864998,86.5059638 Z" id="Shape"></path>
                <path d="M40.8565507,38.9425217 L45.4400446,34.570526 L45.4400446,49.9232757 C45.4400446,52.1747923 47.2578203,54 49.5001691,54 C51.7425179,54 53.5602936,52.1747923 53.5602936,49.9232757 L53.5602936,34.570526 L58.1435942,38.9425217 C59.7653239,40.4891532 62.334996,40.4311084 63.8836435,38.7945948 C65.4278442,37.1621579 65.3619155,34.5817856 63.736319,33.0310773 C51.3672463,21.2326488 52.1077357,21.8495931 51.3914138,21.4694871 C49.8909077,20.6754965 48.0744854,20.9082581 46.8195202,22.0188742 C46.5859664,22.2256224 47.952295,20.9280593 35.2638258,33.0310773 C33.638036,34.5817856 33.5721073,37.1621579 35.1165013,38.7945948 C36.6610887,40.4270317 39.2307608,40.4934241 40.8565507,38.9425217 L40.8565507,38.9425217 Z" id="Path"></path>
            </g>
        </g>
    </g>
</svg>