<svg width="63px" height="49px" viewBox="0 0 63 49" version="1.1" xmlns="http://www.w3.org/2000/svg" xmlns:xlink="http://www.w3.org/1999/xlink">
    <g id="Page-1" stroke="none" stroke-width="1" fill="none" fill-rule="evenodd">
        <g id="Campaigns---Edit-Campaign-details" transform="translate(-967.000000, -663.000000)" fill="#E2DAF0" fill-rule="nonzero">
            <g id="Brand-Logo" transform="translate(866.000000, 584.000000)">
                <g id="frame-landscape" transform="translate(101.227273, 79.169492)">
                    <path d="M61.6454242,0.063852587 L0.992424242,0.063852587 C0.444407576,0.063852587 0,0.495580955 0,1.02839318 L0,47.1176149 C0,47.6504271 0.444407576,48.0821554 0.992424242,48.0821554 L61.6454242,48.0821554 C62.1938379,48.0821554 62.6378485,47.6504271 62.6378485,47.1176149 L62.6378485,1.02839318 C62.6378485,0.495580955 62.1938379,0.063852587 61.6454242,0.063852587 Z M56.683303,40.3922591 L43.0342939,26.6545004 C42.8834455,26.5030676 42.6367288,26.4932293 42.4739712,26.6325089 L33.0072364,34.7305988 L20.907203,20.2507226 C20.828603,20.1561976 20.7136803,20.1021833 20.5836727,20.104884 C20.4584288,20.1073918 20.3415212,20.165843 20.2666924,20.2634545 L5.95454545,38.9282794 L5.95454545,5.85109612 L56.683303,5.85109612 L56.683303,40.3922591 L56.683303,40.3922591 Z" id="Shape"></path>
                    <path d="M41.6935288,19.783692 C44.3806167,19.783692 46.5621636,17.6651751 46.5621636,15.051463 C46.5621636,12.4385225 44.3806167,10.3188481 41.6935288,10.3188481 C39.0042576,10.3188481 36.8250924,12.4385225 36.8250924,15.051463 C36.8250924,17.6649822 39.0044561,19.783692 41.6935288,19.783692 Z" id="Path"></path>
                </g>
            </g>
        </g>
    </g>
</svg>
